<?xml version="1.0" encoding="utf-8"?>
<!-- Generator: Adobe Illustrator 26.4.1, SVG Export Plug-In . SVG Version: 6.00 Build 0)  -->
<svg version="1.1" id="Layer_1" xmlns="http://www.w3.org/2000/svg" xmlns:xlink="http://www.w3.org/1999/xlink" x="0px" y="0px"
	 viewBox="0 0 20 20" style="enable-background:new 0 0 20 20;" xml:space="preserve">
<g>
	<path d="M12.1,17.2C12.1,17.2,12.1,17.2,12.1,17.2c0.8,0,1.4-0.6,1.4-1.3c0-0.7-0.6-1.3-1.4-1.3H7.9c0,0,0,0,0,0
		c-0.8,0-1.4,0.6-1.4,1.3c0,0.7,0.6,1.3,1.4,1.3H12.1z"/>
	<path d="M14.1,11.7C14.1,11.7,14.2,11.7,14.1,11.7c0.8,0,1.4-0.6,1.4-1.3c0-0.7-0.6-1.3-1.4-1.3H5.9c0,0,0,0,0,0
		c-0.8,0-1.4,0.6-1.4,1.3s0.6,1.3,1.4,1.3H14.1z"/>
	<path d="M16.9,6.3C16.9,6.3,16.9,6.3,16.9,6.3c0.8,0,1.4-0.6,1.4-1.3s-0.6-1.3-1.4-1.3H3.1c0,0,0,0,0,0C2.3,3.7,1.7,4.3,1.7,5
		c0,0.7,0.6,1.3,1.4,1.3H16.9z"/>
</g>
</svg>
